<svg xmlns="http://www.w3.org/2000/svg" width="24" height="24" viewBox="0 0 24 24">
    <g fill="none" fill-rule="evenodd">
        <g>
            <g>
                <g>
                    <path fill="#F16E00" d="M0 0H24V24H0z" transform="translate(-28 -82) translate(15 12) translate(13 70)"/>
                    <path fill="#FFF" d="M13.6 3.6H2.4c-.663 0-1.2.537-1.2 1.2v6.4c0 .663.537 1.2 1.2 1.2h11.2c.663 0 1.2-.537 1.2-1.2V4.8c0-.663-.537-1.2-1.2-1.2zM2.8 10.96c-.177 0-.32-.143-.32-.32 0-.177.143-.32.32-.32.177 0 .32.143.32.32 0 .177-.143.32-.32.32zm0-1.28c-.177 0-.32-.143-.32-.32 0-.177.143-.32.32-.32.177 0 .32.143.32.32 0 .177-.143.32-.32.32zm0-1.28c-.177 0-.32-.143-.32-.32 0-.177.143-.32.32-.32.177 0 .32.143.32.32 0 .177-.143.32-.32.32zm0-1.28c-.177 0-.32-.143-.32-.32 0-.177.143-.32.32-.32.177 0 .32.143.32.32 0 .177-.143.32-.32.32zm0-1.28c-.177 0-.32-.143-.32-.32 0-.177.143-.32.32-.32.177 0 .32.143.32.32 0 .177-.143.32-.32.32zm1.28 5.12c-.177 0-.32-.143-.32-.32 0-.177.143-.32.32-.32.177 0 .32.143.32.32 0 .177-.143.32-.32.32zm0-1.28c-.177 0-.32-.143-.32-.32 0-.177.143-.32.32-.32.177 0 .32.143.32.32 0 .177-.143.32-.32.32zm0-1.28c-.177 0-.32-.143-.32-.32 0-.177.143-.32.32-.32.177 0 .32.143.32.32 0 .177-.143.32-.32.32zm0-1.28c-.177 0-.32-.143-.32-.32 0-.177.143-.32.32-.32.177 0 .32.143.32.32 0 .177-.143.32-.32.32zm0-1.28c-.177 0-.32-.143-.32-.32 0-.177.143-.32.32-.32.177 0 .32.143.32.32 0 .177-.143.32-.32.32zm1.28 5.12c-.177 0-.32-.143-.32-.32 0-.177.143-.32.32-.32.177 0 .32.143.32.32 0 .177-.143.32-.32.32zm0-1.28c-.177 0-.32-.143-.32-.32 0-.177.143-.32.32-.32.177 0 .32.143.32.32 0 .177-.143.32-.32.32zm0-1.28c-.177 0-.32-.143-.32-.32 0-.177.143-.32.32-.32.177 0 .32.143.32.32 0 .177-.143.32-.32.32zm0-1.28c-.177 0-.32-.143-.32-.32 0-.177.143-.32.32-.32.177 0 .32.143.32.32 0 .177-.143.32-.32.32zm0-1.28c-.177 0-.32-.143-.32-.32 0-.177.143-.32.32-.32.177 0 .32.143.32.32 0 .177-.143.32-.32.32zm1.28 5.12c-.177 0-.32-.143-.32-.32 0-.177.143-.32.32-.32.177 0 .32.143.32.32 0 .177-.143.32-.32.32zm0-1.28c-.177 0-.32-.143-.32-.32 0-.177.143-.32.32-.32.177 0 .32.143.32.32 0 .177-.143.32-.32.32zm0-1.28c-.177 0-.32-.143-.32-.32 0-.177.143-.32.32-.32.177 0 .32.143.32.32 0 .177-.143.32-.32.32zm0-1.28c-.177 0-.32-.143-.32-.32 0-.177.143-.32.32-.32.177 0 .32.143.32.32 0 .177-.143.32-.32.32zm0-1.28c-.177 0-.32-.143-.32-.32 0-.177.143-.32.32-.32.177 0 .32.143.32.32 0 .177-.143.32-.32.32zm1.28 5.12c-.177 0-.32-.143-.32-.32 0-.177.143-.32.32-.32.177 0 .32.143.32.32 0 .177-.143.32-.32.32zm0-1.28c-.177 0-.32-.143-.32-.32 0-.177.143-.32.32-.32.177 0 .32.143.32.32 0 .177-.143.32-.32.32zm0-1.28c-.177 0-.32-.143-.32-.32 0-.177.143-.32.32-.32.177 0 .32.143.32.32 0 .177-.143.32-.32.32zm0-1.28c-.177 0-.32-.143-.32-.32 0-.177.143-.32.32-.32.177 0 .32.143.32.32 0 .177-.143.32-.32.32zm0-1.28c-.177 0-.32-.143-.32-.32 0-.177.143-.32.32-.32.177 0 .32.143.32.32 0 .177-.143.32-.32.32zM11.2 7.2h-.4v-.8h-.4v.8H10v-.8h-.4v.8h-.4v-2h2v2zm1.36 3.76c-.574 0-1.04-.466-1.04-1.04 0-.574.466-1.04 1.04-1.04.574 0 1.04.466 1.04 1.04 0 .276-.11.54-.305.735-.195.195-.46.305-.735.305zM13.6 7.2h-.4v-.8h-.4v.8h-.4v-.8H12v.8h-.4v-2h2v2z" transform="translate(-28 -82) translate(15 12) translate(13 70) translate(4 4)"/>
                </g>
            </g>
        </g>
    </g>
</svg>
